<?xml version="1.0" encoding="utf-8"?>
<!-- Generator: Adobe Illustrator 18.1.1, SVG Export Plug-In . SVG Version: 6.00 Build 0)  -->
<svg version="1.1" id="Слой_1" width="100px" height="100px" xmlns="http://www.w3.org/2000/svg" xmlns:xlink="http://www.w3.org/1999/xlink" x="0px" y="0px"
	 viewBox="0 0 255.1 255.1" enable-background="new 0 0 255.1 255.1" xml:space="preserve">
<g>
	<circle fill="#E30613" cx="126.9" cy="128" r="124.4"/>
	<g>
		<g>
			<path fill="#FFFFFF" d="M38.2,107.8V84.3c0-0.9,0.3-1.6,0.9-2.2c0.6-0.5,1.4-0.8,2.4-0.8c1,0,1.8,0.3,2.4,0.8
				c0.6,0.5,0.9,1.3,0.9,2.2v8.8l10.9-10.6c0.8-0.8,1.6-1.1,2.6-1.1c1,0,1.7,0.3,2.4,0.8c0.6,0.5,0.9,1.2,0.9,2.1s-0.7,1.9-2.2,3.3
				L51,95.1l10.2,9.8c1.2,1.2,1.9,2.2,1.9,3.1c0,1.9-1.2,2.8-3.5,2.8c-1,0-2.1-0.6-3.4-1.9L44.8,97.5v10.4c0,0.9-0.3,1.6-0.9,2.1
				c-0.6,0.5-1.4,0.8-2.4,0.8c-1,0-1.8-0.3-2.4-0.8C38.5,109.4,38.2,108.7,38.2,107.8z"/>
			<path fill="#FFFFFF" d="M82.6,111c-4.5,0-8.2-1.5-11.1-4.5c-2.7-2.8-4.1-6.3-4.1-10.5c0-4.3,1.4-7.9,4.2-10.7
				c2.8-2.8,6.5-4.3,11-4.3c4.5,0,8.1,1.5,11,4.5c2.8,2.9,4.2,6.4,4.2,10.5c0,4.2-1.4,7.7-4.2,10.6C90.8,109.5,87.1,111,82.6,111z
				 M82.6,105.4c2.7,0,4.8-1,6.3-2.9c1.3-1.7,2-3.9,2-6.4c0-4.1-1.6-7-4.7-8.6c-1-0.5-2.2-0.8-3.6-0.8c-2.7,0-4.8,1-6.3,3
				c-1.3,1.7-2,3.8-2,6.4c0,2.6,0.7,4.8,2.1,6.5C77.8,104.4,79.9,105.4,82.6,105.4z"/>
			<path fill="#FFFFFF" d="M103.7,107.4V84.6c0-0.9,0.3-1.7,1-2.2c0.6-0.5,1.5-0.8,2.5-0.8h8.5c3.7,0,6.2,1.4,7.7,4.2
				c0.4,0.9,0.7,1.9,0.7,3c0,2.8-1.4,4.8-4.1,6v0.1c1.9,0.3,3.6,1.1,4.8,2.3c1.3,1.3,1.9,2.8,1.9,4.6c0,2.8-1,5-2.9,6.6
				c-1.8,1.5-4.3,2.2-7.4,2.2h-9.1c-1,0-1.9-0.3-2.5-0.9C104,109.1,103.7,108.3,103.7,107.4z M110.3,86.9V93h3.5
				c1.1,0,2-0.3,2.6-0.9s1-1.4,1-2.3c0-1.9-1.2-2.9-3.6-2.9H110.3z M110.3,98.4v6.8h5.2c1.2,0,2.2-0.3,3-0.9
				c0.8-0.6,1.2-1.5,1.2-2.6c0-2.1-1.6-3.2-4.7-3.2H110.3z"/>
			<path fill="#FFFFFF" d="M139.5,91.2h4.9c3.2,0,5.8,0.9,7.9,2.6c2.1,1.8,3.2,4.1,3.2,7c0,2.9-1.1,5.3-3.3,7.1
				c-2.1,1.7-4.8,2.6-8,2.6h-7.8c-1.1,0-1.9-0.3-2.5-0.9c-0.6-0.6-0.9-1.3-0.9-2.3V84.5c0-0.7,0.3-1.4,0.9-2
				c0.6-0.6,1.4-0.9,2.5-0.9H150c0.9,0,1.6,0.3,2.2,0.8c0.5,0.5,0.8,1.2,0.8,2c0,0.8-0.3,1.5-0.8,2c-0.5,0.5-1.3,0.8-2.2,0.8
				l-10.5,0V91.2z M139.5,105.2h4.5c1.4,0,2.5-0.4,3.3-1.2c0.8-0.8,1.3-1.8,1.3-3.1s-0.4-2.3-1.3-3.1c-0.8-0.8-1.9-1.2-3.3-1.2h-4.5
				V105.2z"/>
			<path fill="#FFFFFF" d="M160.5,106.6l8.9-22.1c0.9-2.3,2.5-3.4,4.7-3.4c2.3,0,3.9,1.1,4.7,3.4l8.7,22.1c0.2,0.6,0.3,1.1,0.3,1.5
				c0,0.8-0.3,1.4-0.9,1.9c-0.6,0.5-1.3,0.8-2.1,0.8c-1.7,0-2.8-0.7-3.2-2.1l-1.3-3.8H168l-1.3,3.8c-0.5,1.4-1.6,2.1-3.2,2.1
				c-0.9,0-1.7-0.3-2.3-0.8c-0.6-0.5-1-1.2-1-2C160.2,107.8,160.3,107.3,160.5,106.6z M174.1,87.4l-4.2,11.8h8.4L174.1,87.4
				L174.1,87.4z"/>
			<path fill="#FFFFFF" d="M192.5,96c0-4.3,1.4-7.8,4.1-10.6c2.9-2.9,6.6-4.4,11.1-4.4c3.8,0,6.7,0.8,8.5,2.3c0.7,0.6,1,1.3,1,2.2
				c0,0.8-0.3,1.4-0.8,1.9c-0.5,0.5-1.2,0.8-2,0.8c-0.4,0-1.4-0.2-2.9-0.7c-1.5-0.5-2.8-0.7-3.9-0.7c-2.7,0-4.8,1-6.3,2.9
				c-1.3,1.7-2,3.8-2,6.3c0,2.5,0.7,4.6,2.1,6.3c1.5,1.8,3.6,2.7,6.2,2.7c1.1,0,2.4-0.3,4-0.9c1.6-0.6,2.6-0.9,3-0.9
				c1.3,0,2.3,0.6,2.7,1.9c0.1,0.3,0.2,0.6,0.2,0.9c0,1.7-1.3,3-3.8,3.9c-1.8,0.6-3.9,1-6.2,1c-4.5,0-8.2-1.5-11.1-4.5
				C193.8,103.7,192.5,100.2,192.5,96z"/>
		</g>
		<g>
			<path fill="#FFDB00" d="M38,142.3l3.7-22.7c0.1-0.9,0.7-1.6,1.6-2.2c0.9-0.6,1.8-0.9,2.8-0.9c1,0,1.9,0.3,2.7,0.8
				c0.8,0.5,1.4,1.2,1.7,2.1l5.7,16.1h0.1l5.7-16.1c0.3-0.9,0.9-1.6,1.7-2.1c0.8-0.5,1.7-0.8,2.7-0.8c1,0,2,0.3,2.8,0.9
				c0.9,0.6,1.4,1.4,1.6,2.3l3.7,22.7c0,0.2,0,0.3,0,0.4v0.3c0,0.9-0.3,1.6-0.9,2.1c-0.6,0.5-1.4,0.8-2.3,0.8
				c-2.1,0-3.2-0.9-3.5-2.8l-2.2-16.6h-0.1l-5.8,17.1c-0.5,1.6-1.7,2.3-3.5,2.3c-1.8,0-3-0.8-3.5-2.3l-5.8-17.1h-0.1l-2.2,16.6
				c-0.2,1.9-1.4,2.8-3.4,2.8c-1,0-1.7-0.3-2.3-0.8c-0.6-0.5-0.9-1.2-0.9-2.1v-0.3C37.9,142.6,38,142.5,38,142.3z"/>
			<path fill="#FFDB00" d="M80.5,141.7l8.9-22.1c0.9-2.3,2.5-3.4,4.7-3.4c2.3,0,3.9,1.1,4.7,3.4l8.7,22.1c0.2,0.6,0.3,1.1,0.3,1.5
				c0,0.8-0.3,1.4-0.9,1.9c-0.6,0.5-1.3,0.8-2.1,0.8c-1.7,0-2.8-0.7-3.2-2.1l-1.3-3.8H88l-1.3,3.8c-0.5,1.4-1.6,2.1-3.2,2.1
				c-0.9,0-1.7-0.3-2.3-0.8c-0.6-0.5-1-1.2-1-2C80.2,143,80.3,142.5,80.5,141.7z M94.1,122.6l-4.2,11.8h8.4L94.1,122.6L94.1,122.6z"
				/>
			<path fill="#FFDB00" d="M114.3,142.8v-22.9c0-1,0.3-1.8,0.9-2.3c0.6-0.6,1.5-0.9,2.5-0.9h7.8c3.3,0,6,0.9,8.1,2.6
				c2.1,1.8,3.2,4.2,3.2,7.1c0,2.1-0.6,3.9-1.8,5.5c-1.2,1.6-2.9,2.8-5,3.5c-1.4,0.5-2.8,0.7-4.3,0.7H121v6.7c0,0.9-0.3,1.7-0.9,2.3
				c-0.6,0.6-1.4,0.9-2.4,0.9c-1,0-1.8-0.3-2.4-0.9C114.6,144.4,114.3,143.7,114.3,142.8z M121,122.1v8.6h4.5c1.4,0,2.5-0.4,3.3-1.2
				c0.8-0.8,1.3-1.8,1.3-3.1c0-1.3-0.4-2.3-1.3-3.1c-0.8-0.8-1.9-1.2-3.3-1.2H121z"/>
			<path fill="#FFDB00" d="M142.9,143v-23.5c0-0.9,0.3-1.6,0.9-2.2c0.6-0.5,1.4-0.8,2.4-0.8c1,0,1.8,0.3,2.4,0.8
				c0.6,0.5,0.9,1.3,0.9,2.2v8.8l10.9-10.6c0.8-0.8,1.6-1.1,2.6-1.1c1,0,1.7,0.3,2.4,0.8c0.6,0.5,0.9,1.2,0.9,2.1s-0.7,1.9-2.2,3.3
				l-8.4,7.6L166,140c1.2,1.2,1.9,2.2,1.9,3.1c0,1.9-1.2,2.8-3.5,2.8c-1,0-2.1-0.6-3.4-1.9l-11.5-11.4V143c0,0.9-0.3,1.6-0.9,2.1
				c-0.6,0.5-1.4,0.8-2.4,0.8c-1,0-1.8-0.3-2.4-0.8C143.2,144.6,142.9,143.9,142.9,143z"/>
			<path fill="#FFDB00" d="M173.3,142.6v-22.4c0-2.4,1.2-3.5,3.5-3.5h11c0.9,0,1.7,0.3,2.2,0.8c0.6,0.5,0.9,1.2,0.9,2
				c0,0.8-0.3,1.5-0.9,2c-0.6,0.5-1.3,0.8-2.2,0.8h-7.8v5.9h7.3c1,0,1.8,0.2,2.4,0.7c0.6,0.5,0.9,1.2,0.9,2.1c0,0.8-0.3,1.5-0.9,2
				c-0.6,0.5-1.4,0.8-2.3,0.8h-7.3v6.2h8.2c0.9,0,1.7,0.3,2.3,0.8c0.6,0.5,0.9,1.2,0.9,2c0,0.8-0.3,1.5-0.9,2
				c-0.6,0.5-1.4,0.8-2.2,0.8h-11.4c-1,0-1.8-0.3-2.4-0.9C173.6,144.3,173.3,143.5,173.3,142.6z"/>
			<path fill="#FFDB00" d="M203.1,142.8v-20.4h-4.8c-0.9,0-1.7-0.3-2.2-0.8c-0.5-0.5-0.8-1.2-0.8-2c0-0.8,0.3-1.4,0.9-2
				c0.6-0.5,1.3-0.8,2.2-0.8h16.3c0.9,0,1.6,0.3,2.2,0.8c0.6,0.5,0.9,1.2,0.9,2c0,0.9-0.3,1.6-0.8,2.1c-0.5,0.5-1.3,0.7-2.2,0.7
				h-4.8v20.4c0,0.9-0.3,1.7-0.9,2.3c-0.6,0.6-1.4,0.9-2.4,0.9c-1,0-1.8-0.3-2.4-0.9C203.4,144.5,203.1,143.7,203.1,142.8z"/>
		</g>
	</g>
	<g>
		<path fill="#FFDB00" d="M126.9,214.1c-24.3,0-47.3-9.4-64.7-26.5c-3.1-3.1-3.2-8.1-0.1-11.3c3.1-3.1,8.1-3.2,11.3-0.1
			c14.4,14.1,33.3,21.9,53.5,21.9s39.1-7.8,53.5-21.9c3.1-3.1,8.2-3.1,11.3,0.1c3.1,3.1,3.1,8.2-0.1,11.3
			C174.3,204.7,151.3,214.1,126.9,214.1z"/>
	</g>
	<g>
		<polygon fill="#FFDB00" points="48.6,171.5 60.6,174.3 57.8,162.3 		"/>
		<polygon fill="#FFDB00" points="205.3,171.5 193.3,174.3 196.1,162.3 		"/>
	</g>
</g>
</svg>
