<svg xmlns="http://www.w3.org/2000/svg" viewBox="0 0 51.27 42.9"><defs><style>.a{fill:#80cff5;}.b{fill:#ffe4b7;}.c{fill:#52ae32;}.d{fill:#ffed00;}.e{fill:#fff;}.f{fill:#3c3c3b;}</style></defs><title>Layer 4</title><polygon class="a" points="49.54 0 0 0 24.77 42.9 49.54 0"/><path class="b" d="M23.28,6.16a2.73,2.73,0,0,1-2.75-2.69,2.73,2.73,0,1,1,5.46,0,2.72,2.72,0,0,1-2.71,2.72"/><path class="c" d="M25.89,6.53a4.76,4.76,0,0,1,3.2-.1c4.35.81,8.69,1.71,13,2.53,2.09.4,4.21.69,6.32,1a4.15,4.15,0,0,1,2.41,1c.54.53.57.86,0,1.31s-1.49,1-2.25,1.42c-.42.26-.84.5-1.34.79.28.15.46.24.64.35.57.34.6.75,0,1a21.23,21.23,0,0,1-2.58,1c-1.3.42-2.63.76-3.92,1.19a6.41,6.41,0,0,0-1.47.76c-.65.44-.69.91-.23,1.54.15.2.32.38.47.58.34.44.26.7-.29.84a6.63,6.63,0,0,1-3.59,0,41.69,41.69,0,0,1-4.08-1.54c-1.49-.64-2.93-1.37-4.46-2.09l.44-.36c.9-.76,1.83-1.48,2.68-2.3a2.65,2.65,0,0,0,.6-3.49c-.75-1.35-1.6-2.65-2.48-3.92a3.5,3.5,0,0,0-3.1-1.57Z"/><path class="d" d="M25.88,6.51a1.72,1.72,0,0,0,.46.28,3.53,3.53,0,0,1,2.27,1.56c.78,1.26,1.62,2.48,2.37,3.75a1.75,1.75,0,0,1-.4,2.68c-1.13,1-2.33,1.94-3.52,2.86a.69.69,0,0,0-.32.7c.16,3.42.31,6.83.46,10.25,0,.26,0,.53,0,.8a1.24,1.24,0,0,1-1.12,1.33,1.27,1.27,0,0,1-1.42-1.14c-.13-.74-.22-1.48-.33-2.22-.32-2.22-.65-4.43-1-6.65a2.81,2.81,0,0,0-.08-.31c-.13-.45-.33-.53-.68-.22-.81.72-1.62,1.44-2.41,2.19a.71.71,0,0,0-.09.56c.31,1.5.64,3,1,4.49.21,1-.36,1.77-1.32,1.72a1.16,1.16,0,0,1-1.08-.82q-.93-2.7-1.81-5.41a2.28,2.28,0,0,1,.51-2.33c.63-.73,1.24-1.47,1.8-2.26.38-.53.65-1.14,1-1.81.25.06.78-.12.93.55a.36.36,0,0,0,.28.21c.61,0,1.31.44,1.75-.39,0-.08.25-.1.38-.11l1.37-.09c.24.4.49.79.74,1.18l.11-.06a5.86,5.86,0,0,1-.28-.69,1.53,1.53,0,0,1,.44-1.61c.7-.64,1.37-1.31,2.07-1.93a.51.51,0,0,0,.07-.84A11.67,11.67,0,0,0,27,11.4c-.1.52-.19,1-.28,1.57a2.07,2.07,0,0,0,0,.43A1.73,1.73,0,0,1,25.93,15c-1.05.9-1.06.94-2.59.83-.24-.17-.47-.48-.72-.49-1.37-.09-1.37-.07-1.62.4l-.1,0c-1-.23-.87,0-1-1.14-.07-1-.2-1.91-.31-2.87a2.41,2.41,0,0,0-.14-.38c-.43.61-.83,1.15-1.2,1.7a.41.41,0,0,0,.07.36c.12.17.31.3.44.46s.63.57.68.89a5,5,0,0,1-.21,2.8,25.89,25.89,0,0,1-3.86-3.33,1.27,1.27,0,0,1-.18-1.37,9.3,9.3,0,0,1,.68-1.38c.71-1.13,1.45-2.24,2.2-3.34a3.37,3.37,0,0,1,2.6-1.38.59.59,0,0,1,.35.08,3.75,3.75,0,0,0,4.62-.13l.21-.15v0"/><path class="e" d="M25.23,38.77c0,.19-.2.39-.31.58-.11-.19-.31-.38-.31-.58-.07-2.13-.1-4.26-.14-6.39,0-.29.05-.56.41-.57s.41.27.41.56c0,1.09,0,5.35-.06,6.4"/><path class="e" d="M21.92,35.69c-.05.06-.14.23-.22.23a.41.41,0,0,1-.3-.23c-.25-.62-.48-1.26-.71-1.9-.39-1.06-.78-2.13-1.18-3.2-.1-.26-.22-.56.15-.65.12,0,.4.23.47.42.58,1.65,1.14,3.32,1.7,5,0,.09.05.17.09.34"/><path class="e" d="M26.51,32.19c0-.15.17-.3.26-.45.09.16.27.32.27.48,0,1.14-.1,2.27-.17,3.4,0,.15-.14.29-.21.43-.07-.15-.2-.3-.2-.46,0-.54,0-2.82.05-3.4"/><path class="f" d="M23.28.71a2.76,2.76,0,0,0-2.75,2.76l4.08-1L26,3.44A2.76,2.76,0,0,0,23.28.71"/></svg>